<svg width="99" height="24" viewBox="0 0 99 24" fill="none" xmlns="http://www.w3.org/2000/svg">
  <g clip-path="url(#clip0_7752_4977)">
    <path
      d="M9.28853 23.6335C7.09392 23.1022 5.20632 22.0396 3.61437 20.4898C2.18161 19.0951 1.16959 17.4569 0.578298 15.5751C-0.14945 13.2728 -0.206305 10.9372 0.498701 8.63478C1.63581 4.8602 4.10332 2.22575 7.84441 0.742479C8.17362 0.617075 8.51185 0.513597 8.85058 0.409963C9.05003 0.348941 9.24967 0.287866 9.44773 0.222229C9.45341 0.238833 9.45625 0.252669 9.4591 0.266506C9.46194 0.280342 9.46478 0.294177 9.47047 0.310781C6.99158 2.30322 7.26448 5.41365 9.06111 7.09617C10.8236 8.74547 13.5754 8.74547 15.338 7.15152C17.1914 5.469 17.4302 1.97115 14.9173 0.233298C14.9971 0.254321 15.077 0.274945 15.1569 0.29555C15.4974 0.383428 15.8364 0.470942 16.168 0.58751C19.5794 1.79405 22.0583 3.9968 23.4796 7.22899C24.8555 10.3173 24.8783 13.4831 23.5592 16.6046C22.2971 19.6043 20.0911 21.7517 17.0436 23.0468C16.4295 23.3125 15.8155 23.5117 15.2015 23.6667L14.9627 23.6114L17.6236 17.8996L13.8711 22.128L12.2564 10.0406L10.5166 22.128L6.91199 17.8996L9.48184 23.6114L9.32265 23.6445C9.31127 23.6335 9.29991 23.6335 9.28853 23.6335Z"
      fill="white" />
    <path
      d="M12.5175 6.17743C12.6654 5.17013 13.4841 4.36209 14.5302 4.21818C14.7917 4.17391 14.7917 3.79756 14.5302 3.76436C13.4955 3.62045 12.6654 2.82348 12.5175 1.80511C12.4834 1.53945 12.0855 1.53945 12.0513 1.80511C11.9035 2.81241 11.0848 3.62045 10.0387 3.76436C9.76576 3.79756 9.76576 4.18498 10.0387 4.21818C11.0734 4.36209 11.9035 5.15906 12.0513 6.17743C12.0855 6.44309 12.4834 6.44309 12.5175 6.17743Z"
      fill="white" />
    <mask id="mask0_7752_4977" style="mask-type:luminance" maskUnits="userSpaceOnUse" x="31" y="5"
      width="68" height="16">
      <path d="M98.2544 5.90982H31.9561V20.2117H98.2544V5.90982Z" fill="white" />
    </mask>
    <g mask="url(#mask0_7752_4977)">
      <path fill-rule="evenodd" clip-rule="evenodd"
        d="M64.5033 16.1146L64.5034 16.1116V16.1094C64.5045 15.224 64.5059 14.0997 64.5059 13.1218H64.5099V6.15513C64.5099 6.02254 64.616 5.91779 64.7473 5.91779C65.1783 5.92077 65.6249 5.91747 66.0776 5.91413C67.2358 5.90556 68.434 5.8967 69.5141 5.99204C71.9168 6.20419 73.5848 7.82187 74.037 10.2007C74.3194 11.691 74.2664 13.1682 73.6631 14.5817C72.9391 16.2776 71.637 17.2999 69.8231 17.5492C69.0829 17.6511 68.3283 17.6518 67.5746 17.6523C67.2792 17.6526 66.984 17.6529 66.6898 17.6592L64.7393 17.6659C64.608 17.6659 64.502 17.5611 64.502 17.4298C64.502 17.1628 64.5026 16.6891 64.5033 16.1146ZM68.7291 15.9633C70.1519 15.8745 71.2273 15.2314 71.7842 13.8749L71.7855 13.8723C72.2138 12.8247 72.2549 11.7268 72.0586 10.6276C71.7457 8.87469 70.7671 7.90011 69.0089 7.64817C68.4732 7.57127 67.2706 7.57922 66.7614 7.58718C66.6301 7.58983 66.528 7.69591 66.528 7.82585C66.5356 8.70212 66.5337 9.73238 66.532 10.6826V10.6889C66.5313 11.0736 66.5307 11.4451 66.5307 11.7878V15.7392C66.5307 15.8705 66.6368 15.9766 66.768 15.9766C66.9594 15.9758 67.1652 15.9776 67.3749 15.9795H67.3753C67.8446 15.9837 68.3343 15.9881 68.7291 15.9633Z"
        fill="white" />
      <path
        d="M98.2549 12.4004L98.2547 12.4031H98.1223C98.1223 12.4031 98.1117 12.6086 98.0997 12.7121C98.0082 13.5288 97.8359 14.3244 97.4447 15.055C97.1835 15.5443 96.8414 15.9633 96.3203 16.198C95.343 16.6409 94.5806 16.1649 94.578 15.1094C94.5762 14.49 94.5768 13.8094 94.5773 13.1171V13.1167C94.578 12.1875 94.5786 11.2373 94.574 10.3863C94.5727 10.255 94.6801 10.149 94.8113 10.149L96.7459 10.1516C96.8772 10.1516 96.9833 10.0455 96.9833 9.91426V8.67581C96.9833 8.54454 96.8772 8.43846 96.7459 8.43846H94.8153C94.684 8.43846 94.578 8.33238 94.578 8.20111C94.578 7.90911 94.5784 7.49889 94.5788 7.10792V7.09892V7.0893C94.579 6.73256 94.5793 6.39371 94.5793 6.17769C94.5793 6.04642 94.4732 5.94034 94.3419 5.94034H92.943C92.8118 5.94034 92.7057 6.04642 92.7057 6.17769L92.7097 8.19979C92.7097 8.33106 92.6036 8.43713 92.4723 8.43713H91.3758C91.2445 8.43713 91.1384 8.54189 91.1384 8.67316L91.1358 9.90631C91.1344 10.0376 91.2418 10.1437 91.3731 10.1437C91.5758 10.1428 91.845 10.1436 92.089 10.1442C92.2345 10.1446 92.371 10.145 92.479 10.145C92.6102 10.1463 92.7137 10.2524 92.7123 10.3823V15.3825C92.715 15.7048 92.7468 16.0336 92.8211 16.3465C93.012 17.1527 93.5092 17.6672 94.3419 17.8263C95.4876 18.0451 96.6518 17.4762 97.2988 16.3691C97.9906 15.1871 98.1923 13.7415 98.2547 12.4031H98.2562L98.2549 12.4004Z"
        fill="white" />
      <path
        d="M84.9327 14.7116C84.9048 14.6095 84.8107 14.5392 84.7046 14.5392V14.5406H83.4476C83.3017 14.5406 83.1903 14.6718 83.2129 14.8164C83.3335 15.5748 83.6213 16.3333 84.2007 16.8491C85.3052 17.8303 86.6325 17.992 88.0301 17.8077C88.835 17.7017 89.5589 17.3874 90.1543 16.8119C91.6765 15.3361 91.1766 13.1125 89.1585 12.5344C88.6743 12.3954 88.1676 12.3323 87.6612 12.2693C87.4285 12.2403 87.1958 12.2113 86.9654 12.175C86.8279 12.1532 86.6896 12.1349 86.5514 12.1166C86.2536 12.0773 85.9562 12.038 85.6672 11.9629C85.1342 11.8236 84.9273 11.4723 85.0626 10.9379C85.1196 10.7085 85.2602 10.4659 85.4325 10.3054C86.2069 9.58807 87.9201 9.66497 88.6361 10.438C88.7753 10.5878 88.8814 10.7761 88.9782 10.9591C89.0697 11.1182 89.1333 11.276 89.1744 11.3874C89.2089 11.4815 89.2977 11.5425 89.3972 11.5425H90.6104C90.7589 11.5425 90.8717 11.406 90.8438 11.2601C90.6542 10.2471 90.145 9.28177 89.197 8.79912C87.9227 8.15072 86.5967 8.11094 85.2721 8.61083C84.2789 8.98475 83.608 9.6968 83.3972 10.7602C83.1426 12.0464 83.5139 13.078 84.9207 13.3976C85.3425 13.494 85.7732 13.5502 86.2041 13.6064C86.4371 13.6368 86.6701 13.6671 86.9017 13.7039C87.049 13.7272 87.1974 13.748 87.3458 13.7688C87.7783 13.8294 88.2115 13.89 88.6241 14.0155C89.2553 14.2064 89.5006 14.8256 89.2182 15.3998C89.1094 15.6212 88.9092 15.8254 88.7024 15.9673C88.1972 16.312 87.6124 16.3677 87.0157 16.3359C85.7746 16.2564 85.1859 15.6703 84.9327 14.7116Z"
        fill="white" />
      <path
        d="M82.3564 17.6738C82.4877 17.6738 82.5937 17.5677 82.5937 17.4365H82.5951V8.66253C82.5964 8.52994 82.489 8.42386 82.3577 8.42386H80.9761C80.8461 8.42386 80.74 8.52861 80.74 8.65988V15.7551C80.74 15.8851 80.634 15.9898 80.504 15.9898H77.1308C76.9995 15.9898 76.8934 15.8851 76.8934 15.7538V15.2888C76.8933 13.805 76.8929 10.3444 76.8987 8.66121C76.8987 8.52994 76.7926 8.42518 76.6614 8.42518H75.2413C75.11 8.42518 75.0039 8.52994 75.0039 8.66121C75.0119 11.3516 75.0119 14.7262 75.0039 17.4378C75.0039 17.5691 75.11 17.6738 75.2413 17.6738H82.3564Z"
        fill="white" />
      <path
        d="M59.0739 20.2117C58.627 20.2064 58.1815 20.2038 57.7346 20.2038C57.2878 20.2038 56.8277 20.2064 56.3742 20.2117H56.3225C56.2151 20.2117 56.113 20.2064 56.0427 20.1335C55.9817 20.0712 55.9592 19.9744 55.9645 19.8126C55.9645 19.8126 55.9711 19.1563 55.9671 18.8181C55.9631 18.6948 55.9883 18.6086 56.0467 18.5503C56.1223 18.4721 56.235 18.4628 56.3132 18.4628L57.972 18.4681H57.9732C58.1723 18.4654 58.2083 18.4649 58.3101 18.2122C58.5223 17.5293 58.5169 17.0387 58.2902 16.4672C57.5251 14.5392 55.1543 8.41989 55.1543 8.41989L56.8409 8.41591C57.0756 8.41591 57.2095 8.51138 57.2891 8.73679C57.6625 9.79581 58.2983 11.5214 58.8114 12.9143L58.8122 12.9165C59.1354 13.7934 59.4097 14.538 59.5393 14.9012C59.655 14.5707 59.8881 13.9237 60.1661 13.1524V13.1522L60.1663 13.1514C60.6943 11.6862 61.3838 9.77284 61.7364 8.72884C61.812 8.50475 61.9313 8.41458 62.1488 8.41458L63.8712 8.41989C63.8712 8.41989 60.4966 17.3238 59.5552 19.8617C59.4876 20.0433 59.3841 20.2104 59.0858 20.2104H59.0752L59.0739 20.2117Z"
        fill="white" />
      <path
        d="M54.5821 17.2164V13.0409L54.5808 13.0422C54.5808 12.7265 54.5805 12.2868 54.5801 11.7783V11.7761C54.5788 9.99319 54.5768 7.36511 54.5861 6.25856C54.5887 5.99602 54.5052 5.90851 54.2466 5.91912C53.8369 5.91779 53.4669 5.91779 53.0546 5.91912C52.8172 5.92044 52.7178 5.98807 52.7178 6.24C52.7244 9.11735 52.7231 14.5101 52.7178 17.3874C52.7178 17.6102 52.8 17.6818 53.0121 17.6765C53.2683 17.669 53.5253 17.6708 53.7819 17.6724C53.8918 17.6732 54.0016 17.6738 54.1114 17.6738C54.4252 17.6729 54.5821 17.5204 54.5821 17.2164Z"
        fill="white" />
      <path
        d="M44.375 8.66386C44.375 8.53259 44.4824 8.42651 44.6137 8.42651H51.7288C51.8601 8.42651 51.9662 8.53127 51.9662 8.66254C51.9582 11.3741 51.9582 14.7487 51.9662 17.4391C51.9662 17.5704 51.8601 17.6751 51.7288 17.6751H50.3087C50.1774 17.6751 50.0714 17.5704 50.0714 17.4391C50.0773 15.7557 50.0769 12.2942 50.0768 10.8108L50.0767 10.3465C50.0767 10.2152 49.9706 10.1105 49.8393 10.1105H46.4661C46.3361 10.1105 46.23 10.2152 46.23 10.3452V17.4404C46.23 17.5717 46.124 17.6765 45.994 17.6765H44.6124C44.4811 17.6765 44.3737 17.5704 44.375 17.4378V8.66386Z"
        fill="white" />
      <path fill-rule="evenodd" clip-rule="evenodd"
        d="M31.9561 11.8528C31.9442 15.1531 34.5218 17.7547 37.8089 17.76C41.1358 17.7653 43.6896 15.2128 43.6962 11.8727C43.7028 8.60819 41.1344 6.03846 37.858 6.03051C34.5629 6.02255 31.968 8.58432 31.9561 11.8528ZM37.9017 15.8784C35.6821 15.8917 33.9504 14.1454 33.9411 11.882C33.9318 9.6862 35.6622 7.91338 37.8275 7.9041C39.9716 7.89482 41.7271 9.67294 41.7404 11.8687C41.7537 14.0407 40.006 15.8652 37.9017 15.8784Z"
        fill="white" />
    </g>
  </g>
  <defs>
    <clipPath id="clip0_7752_4977">
      <rect width="98.2541" height="24" fill="white" />
    </clipPath>
  </defs>
</svg>
  