<?xml version="1.0" encoding="UTF-8"?><svg id="a" xmlns="http://www.w3.org/2000/svg" viewBox="0 0 201.04 33.19"><defs><style>.b{fill:#2b2c6b;}</style></defs><g><path class="b" d="M87.8,26.2c-.02-.75-.06-1.5-.06-2.25,0-5.29,.01-10.58-.02-15.87,0-.86,.24-1.12,1.11-1.1,2.38,.06,4.77-.03,7.15,.04,1.51,.04,2.98,.36,4.11,1.5,.84,.85,1.26,1.9,1.29,3.08,.02,1.01,.09,2.04-.09,3.02-.26,1.51-1.25,2.54-2.72,3.22,2.64,2.23,2.58,5.45,3.36,8.36h-4.32c-.31-1.4-.57-2.81-.93-4.19-.6-2.25-1.21-2.64-3.54-2.64-.85,0-1.15,.3-1.15,1.15,.02,1.89-.04,3.78-.07,5.68h-4.12Zm4.2-13c0,.69,.03,1.37,0,2.06-.03,.66,.21,.97,.9,.94,.78-.04,1.6,.07,2.34-.11,.58-.14,1.28-.51,1.58-.99,1.39-2.28,0-4.74-2.65-4.83-1.44-.05-2.16,.64-2.16,2.05v.88h0Z"/><path class="b" d="M104.68,26.2c0-6.04,.02-12.09-.01-18.13,0-.88,.26-1.11,1.11-1.08,.76,.03,1.48-.01,2.25,0s.95,.26,.94,.96c-.03,2.45-.01,4.9,0,7.35,0,.22,.02,.44,.01,.96,.44-.48,4.8-6.24,6.66-8.76,.16-.21,.43-.47,.66-.47,1.49-.04,2.98-.02,4.75-.02-1.05,1.38-1.95,2.56-2.85,3.74-1.25,1.63-2.48,3.27-3.78,4.87-.55,.68-.42,1.14,.09,1.78,2.11,2.66,4.16,5.36,6.22,8.06,.18,.23,.3,.5,.44,.75h-5.1c-.03-.12-6.85-9.24-7.07-9.39,0,.25-.02,.39-.02,.51,0,2.96,.02,5.92,.03,8.88h-4.33Z"/><path class="b" d="M65.82,26.2c1.7-4.46,3.4-8.92,5.1-13.38,.62-1.64,1.25-3.27,1.86-4.91,.22-.61,.51-.93,1.26-.92,.87,.01,1.76,0,2.64,0,.74-.06,1.05,.3,1.28,.91,2.21,5.79,4.43,11.58,6.64,17.37,.11,.3,.17,.62,.26,.94h-4.71c-.23-.93-.47-1.85-.7-2.78-.14-.56-.48-.78-1.06-.77-1.99,.03-3.98,0-5.98,.03-.31,0-.8,.18-.88,.4-.39,1.02-.67,2.08-.99,3.12h-4.72Zm6.91-6.8h5.32c-.86-2.51-1.67-4.92-2.48-7.28-.11-.01-.23,.01-.33,0l-2.51,7.28Z"/><path class="b" d="M130.97,26.2c-.23-1.06-.41-2.14-.71-3.18-1.53-5.27-3.09-10.53-4.69-16,.8,0,1.5-.07,2.18,.04,.24,.04,.52,.47,.61,.77,1.35,4.92,4.16,15.03,4.39,15.42,.35-1.12,.65-2.01,.92-2.92,1.22-4.21,2.44-8.43,3.63-12.65,.24-.84,.8-.65,1.41-.67,.48-.02,.93,.13,1.12,.79,1.44,5.06,2.92,10.11,4.47,15.44,.24-.43,3.11-10.57,4.44-15.43,.14-.51,.41-.82,1.02-.81,.06,0,.82,0,1.77,.01-1.9,6.5-3.77,12.85-5.63,19.2h-2.75c-.09-.17-2.48-8.2-3.59-12.04-.27-.93-.57-1.86-.94-3.05-.23,.45-1.61,4.88-2.2,6.94-.78,2.71-1.53,5.44-2.29,8.15h-3.16Z"/><path class="b" d="M35.99,26.2c0-.95,.05-1.35,.04-2.15-.02-.95,.33-1.16,1.19-1.14,2.12,.05,4.25,.01,6.37,.02,.63,0,1.27,.04,1.52-.73,.25-.76,0-1.35-.61-1.8-1.87-1.36-3.77-2.69-5.62-4.08-1.31-.98-2.49-2.06-3.06-3.7-.61-1.77,.15-4.11,1.87-4.83,1-.42,2.13-.7,3.21-.74,2.58-.11,5.16,0,7.74-.05,.78-.01,1.01,.25,1.01,1.01,0,2.61,.03,2.61-2.55,2.61-1.73,0-3.46,0-5.2-.04-.67-.02-1.17,.16-1.41,.8-.25,.66-.08,1.25,.49,1.65,1.31,.91,2.67,1.75,3.95,2.68,1.33,.98,2.79,1.88,3.86,3.1,2.03,2.3,1.33,5.72-1.28,7.33-.09,.06-7.75,.07-11.54,.07h.02Z"/><path class="b" d="M169.83,26.2c0-6.07,0-12.15-.02-18.22,0-.77,.22-1.01,1-1,2.22,.05,4.44-.04,6.66,.04,.99,.03,2.01,.22,2.96,.52,2.87,.92,3.37,4.26,2.94,6.3-.39,1.84-1.51,2.97-3.27,3.66,.17,.05,2.31,1.97,2.99,4.59,.36,1.35,.59,2.73,.87,4.1h-2.75c-.08-1.63-.35-3.42-1.12-5.28-.35-1.29-1.35-2.15-2.69-2.32-1.25-.16-2.52-.12-3.78-.22-.91-.07-1.19,.3-1.18,1.19,.02,2.21-.03,4.43-.05,6.64h-2.56Zm5.52-17.25c-.68-.02-1.36,0-2.05,0-.63-.03-.87,.23-.86,.86,.02,1.95,.03,3.91,0,5.86,0,.69,.28,.94,.93,.92,1.37-.05,2.73-.07,4.1-.11,2.73-.07,3.54-2.24,3.33-4.3-.16-1.57-.89-2.73-2.55-3.02-.95-.17-2.9-.24-2.9-.21Z"/><path class="b" d="M57.58,26.2c0-4.7-.03-9.41-.04-14.11,0-.99-.5-1.48-1.5-1.48-.92,0-1.83-.02-2.75,0-.53,.01-.73-.19-.76-.74-.14-2.87-.16-2.87,2.74-2.87,3.56,0,7.13,.02,10.69-.01,.7,0,.97,.16,.98,.92,.01,2.7,.04,2.7-2.62,2.7h-2.42v15.59h-4.32Z"/><path class="b" d="M168.19,25.91c-2.41-6.1-4.83-12.19-7.23-18.29-.2-.54-.55-.63-.92-.64h-1.1c-.48-.01-.9,.08-1.15,.71-1.71,4.39-3.47,8.75-5.2,13.13-.69,1.78-1.33,3.58-1.99,5.37h2.55c.52-1.35,1.08-2.7,1.56-4.07,.2-.55,.48-.79,1.06-.79,2.41,.02,4.82,.02,7.23,.01,.55,0,.88,.16,1.06,.75,.44,1.38,.96,2.74,1.45,4.1h2.75c-.03-.09-.04-.19-.07-.28h0Zm-5.79-6.29c-1.99,.05-3.98,.03-5.97,.03-.53,0-.71-.26-.53-.76,1.09-2.85,3.26-8.73,3.49-8.89,1.15,3.03,2.43,6.03,3.5,8.98,.14,.45-.02,.68-.49,.64Z"/><path class="b" d="M190.41,26.1c-2.2-.2-2.42-2.81-2.37-5.29,.02-4.25,.03-8.49,0-12.74,0-.86,.24-1.11,1.1-1.1,3.63,.05,7.25,.02,10.88,.02,.29,0,.63,0,.96,.02,.04,.15,.03,.3,.04,.42,.05,1.02-.44,1.53-1.49,1.53-2.58,0-5.16,.03-7.74-.01-.85-.01-1.18,.25-1.14,1.12,.06,1.3,.05,2.61,0,3.92-.03,.8,.27,1.11,1.08,1.1,2.35-.03,4.71,0,7.06-.02,.65,0,1.03,.09,1.03,.89s-.45,.87-1.07,.87c-2.32-.01-4.64,.02-6.96-.02-.84-.01-1.19,.28-1.14,1.14,0,1.03-.07,2.01,.02,2.94,.11,2.69,1.02,3.49,3.68,3.63,1.66,.08,3.33,.01,5,.02,2.05,0,1.63-.13,1.69,1.65-3.53,0-10.6-.08-10.61-.09h0Z"/></g><path class="b" d="M12.2,22.88c-.29,.07-.57,.14-.86,.22-1.16,.32-2.32,.64-3.47,.97-.43,.12-.76,.05-1.07-.28-2.17-2.26-4.35-4.5-6.52-6.75-.38-.39-.37-.52,0-.9,2.07-2.14,4.14-4.27,6.21-6.41,.34-.35,.52-.37,.84-.01,.82,.92,2.49,2.93,2.51,2.99l.13-.09c-.04-.2-.08-.4-.13-.59-.34-1.31-.67-2.62-1.02-3.93-.12-.43-.01-.77,.29-1.08C11.29,4.76,13.47,2.5,15.66,.25c.32-.33,.47-.33,.81,.02,1.98,2.04,3.96,4.09,5.94,6.13,.7,.72,.8,.72-.03,1.5-.79,.74-1.6,1.47-2.39,2.2-.04,.04-.07,.08-.07,.19,.1-.02,.21-.04,.31-.07,1.29-.36,2.59-.69,3.88-1.08,.56-.17,.94-.04,1.34,.38,2.13,2.23,4.28,4.44,6.42,6.65,.32,.33,.33,.49,0,.83-1.9,1.97-3.81,3.94-5.72,5.92-.19,.2-.38,.41-.58,.61-.28,.28-.48,.29-.74,0-.84-.95-2.55-2.96-2.56-3l-.11,.05c.01,.1,.02,.21,.04,.3,.37,1.43,.74,2.87,1.12,4.3,.1,.36,.01,.66-.24,.93-2.18,2.26-4.36,4.51-6.54,6.77-.4,.41-.54,.41-.94,0-2.04-2.11-4.09-4.23-6.13-6.34-.41-.43-.42-.57,.01-.98,.89-.84,1.8-1.66,2.7-2.49,.03-.02,.04-.05,.07-.08l-.03-.09-.02-.02Zm-1.14-9.26l-.05,.09c.07,.08,.14,.17,.22,.25,.83,.86,1.66,1.74,2.51,2.59,.31,.32,.39,.66,.27,1.08-.34,1.27-1.01,3.98-1.02,4.07l.13,.09c.12-.15,.23-.32,.36-.46,.78-.82,1.57-1.63,2.36-2.44,.27-.28,.57-.37,.95-.26,1.21,.34,2.43,.67,3.64,1,.11,.03,.23,.05,.44,.09-.13-.16-.18-.24-.24-.3-.84-.87-1.68-1.75-2.53-2.62-.31-.31-.4-.65-.29-1.08,.33-1.2,.63-2.41,.94-3.62,.04-.15,.07-.3,.11-.45-.14,.02-.21,.06-.28,.13-.82,.85-1.65,1.68-2.45,2.55-.36,.39-.72,.54-1.24,.36-.65-.22-1.32-.38-1.99-.56-.61-.17-1.23-.34-1.84-.51Z"/></svg>